<svg width="110" height="110" viewBox="0 0 110 110" fill="none" xmlns="http://www.w3.org/2000/svg">
<g filter="url(#filter0_d)">
<circle cx="55" cy="55" r="35" fill="#00DF54"/>
</g>
<path d="M62.296 57.854C61.156 57.3473 60.2567 56.9293 59.598 56.6C59.2433 56.4227 58.9267 56.4733 58.648 56.752C58.5467 56.8533 58.306 57.1447 57.926 57.626C57.6727 58.006 57.4953 58.2467 57.394 58.348C57.2167 58.6267 56.9507 58.6773 56.596 58.5C55.2787 57.892 54.2147 57.2587 53.404 56.6C52.5427 55.688 51.808 54.7887 51.2 53.902C51.124 53.7753 51.0987 53.636 51.124 53.484C51.1747 53.332 51.2507 53.2053 51.352 53.104L51.504 52.952C51.6813 52.724 51.846 52.572 51.998 52.496C52.2007 52.2427 52.302 52.0273 52.302 51.85C52.378 51.774 52.416 51.6727 52.416 51.546C52.416 51.394 52.378 51.28 52.302 51.204C52.226 51.128 52.036 50.7353 51.732 50.026C51.4533 49.3927 51.2253 48.8353 51.048 48.354C50.972 47.8727 50.858 47.556 50.706 47.404C50.6047 47.3027 50.4527 47.252 50.25 47.252H49.452C49.3 47.252 49.1227 47.3153 48.92 47.442C48.7173 47.5433 48.578 47.6447 48.502 47.746C47.5647 48.6833 47.096 49.7853 47.096 51.052C47.2733 52.648 47.7927 54.016 48.654 55.156C50.478 57.816 52.6947 59.7793 55.304 61.046L55.798 61.236C56.558 61.54 57.1407 61.73 57.546 61.806C57.926 61.958 58.306 62.0467 58.686 62.072C59.0913 62.0973 59.56 62.072 60.092 61.996C60.624 61.8947 61.118 61.6793 61.574 61.35C62.03 61.0207 62.4227 60.6027 62.752 60.096C63.056 59.5133 63.1067 58.88 62.904 58.196L62.296 57.854ZM66.248 43.452C64.2213 41.4253 61.8273 40.0573 59.066 39.348C56.406 38.664 53.746 38.664 51.086 39.348C48.3247 40.0573 45.9307 41.4253 43.904 43.452C42.232 45.124 41.0033 47.062 40.218 49.266C39.458 51.4193 39.1667 53.6487 39.344 55.954C39.5467 58.2593 40.2307 60.4253 41.396 62.452L39.154 70.546L47.552 68.304C49.908 69.5707 52.3907 70.204 55 70.204C57.8627 70.204 60.51 69.4947 62.942 68.076C65.298 66.708 67.1727 64.846 68.566 62.49C69.9847 60.058 70.694 57.4107 70.694 54.548C70.77 52.5213 70.4027 50.5327 69.592 48.582C68.832 46.7073 67.7173 44.9973 66.248 43.452ZM61.954 65.606C59.75 66.9993 57.432 67.696 55 67.696C52.7453 67.696 50.5287 67.1133 48.35 65.948L47.894 65.606L42.954 66.898L44.246 62.148L43.904 61.654C42.6627 59.5767 42.0167 57.36 41.966 55.004C41.9153 52.724 42.422 50.5707 43.486 48.544C44.6007 46.4413 46.1713 44.744 48.198 43.452C50.2247 42.16 52.4033 41.4887 54.734 41.438C56.9887 41.362 59.1293 41.8687 61.156 42.958C63.1827 44.0473 64.8167 45.5927 66.058 47.594C67.3247 49.5953 67.996 51.774 68.072 54.13C68.148 56.4353 67.6667 58.6013 66.628 60.628C65.5387 62.7053 63.9807 64.3647 61.954 65.606Z" fill="white"/>
<defs>
<filter id="filter0_d" x="0" y="0" width="110" height="110" filterUnits="userSpaceOnUse" color-interpolation-filters="sRGB">
<feFlood flood-opacity="0" result="BackgroundImageFix"/>
<feColorMatrix in="SourceAlpha" type="matrix" values="0 0 0 0 0 0 0 0 0 0 0 0 0 0 0 0 0 0 127 0"/>
<feOffset/>
<feGaussianBlur stdDeviation="10"/>
<feColorMatrix type="matrix" values="0 0 0 0 0 0 0 0 0 0.87451 0 0 0 0 0.329412 0 0 0 0.5 0"/>
<feBlend mode="normal" in2="BackgroundImageFix" result="effect1_dropShadow"/>
<feBlend mode="normal" in="SourceGraphic" in2="effect1_dropShadow" result="shape"/>
</filter>
</defs>
</svg>
