<svg width="110" height="110" viewBox="0 0 110 110" fill="none" xmlns="http://www.w3.org/2000/svg">
<g filter="url(#filter0_d)">
<circle cx="55" cy="55" r="35" fill="#0066FF"/>
</g>
<path d="M64.78 58.296C64.6027 58.296 64.324 58.2453 63.944 58.144L63.716 58.106C63.0067 57.9287 62.3227 57.7133 61.664 57.46C60.904 57.1813 60.144 57.194 59.384 57.498C58.624 57.802 58.0667 58.3213 57.712 59.056L57.37 59.778C55.8247 58.9167 54.4187 57.8653 53.152 56.624C51.9107 55.3573 50.8593 53.9513 49.998 52.406L50.644 51.95C51.3787 51.5953 51.898 51.0507 52.202 50.316C52.506 49.556 52.5187 48.796 52.24 48.036C51.9867 47.352 51.784 46.6553 51.632 45.946C51.5307 45.5153 51.4673 45.1607 51.442 44.882C51.2393 43.7167 50.682 42.7667 49.77 42.032C48.8833 41.272 47.8573 40.9047 46.692 40.93H41.942C41.258 40.93 40.5993 41.0693 39.966 41.348C39.3327 41.6267 38.788 42.032 38.332 42.564C37.876 43.0707 37.5467 43.6533 37.344 44.312C37.1413 44.9707 37.0907 45.642 37.192 46.326C37.7747 50.81 39.282 54.952 41.714 58.752C44.0953 62.476 47.148 65.5287 50.872 67.91C54.6973 70.342 58.852 71.8367 63.336 72.394H63.944C65.16 72.394 66.2113 71.9887 67.098 71.178C67.6047 70.722 67.9973 70.19 68.276 69.582C68.5547 68.9487 68.694 68.29 68.694 67.606V62.856C68.6687 61.716 68.2887 60.728 67.554 59.892C66.8193 59.0307 65.8947 58.4987 64.78 58.296ZM65.578 67.796C65.578 68.2773 65.388 68.67 65.008 68.974C64.6533 69.278 64.2353 69.4047 63.754 69.354C59.726 68.8473 56.0147 67.492 52.62 65.288C49.3013 63.16 46.578 60.424 44.45 57.08C42.2713 53.6853 40.9413 49.974 40.46 45.946C40.4093 45.4647 40.536 45.0467 40.84 44.692C41.144 44.312 41.5367 44.122 42.018 44.122H46.768C47.148 44.122 47.49 44.236 47.794 44.464C48.098 44.692 48.288 44.996 48.364 45.376C48.4147 45.8067 48.4907 46.2373 48.592 46.668C48.7693 47.504 49.01 48.3147 49.314 49.1L47.11 50.126C46.7047 50.3033 46.426 50.6073 46.274 51.038C46.1473 51.4433 46.1727 51.8487 46.35 52.254C47.49 54.686 49.01 56.8647 50.91 58.79C52.81 60.69 54.976 62.21 57.408 63.35C57.8133 63.5273 58.2187 63.54 58.624 63.388C59.0547 63.2107 59.3587 62.9193 59.536 62.514L60.524 60.31C61.3347 60.5887 62.158 60.8293 62.994 61.032L64.286 61.26C64.666 61.336 64.97 61.526 65.198 61.83C65.426 62.134 65.54 62.476 65.54 62.856L65.578 67.796ZM68.618 41.956C68.4407 41.5507 68.1493 41.2593 67.744 41.082C67.5667 41.006 67.3767 40.968 67.174 40.968H60.828C60.524 40.9173 60.22 40.9553 59.916 41.082C59.6373 41.2087 59.4093 41.4113 59.232 41.69C59.08 41.9433 59.004 42.2347 59.004 42.564C59.004 42.868 59.08 43.1593 59.232 43.438C59.4093 43.6913 59.6373 43.8813 59.916 44.008C60.22 44.1347 60.524 44.1727 60.828 44.122H63.336L58.13 49.366C57.826 49.67 57.674 50.0373 57.674 50.468C57.674 50.8987 57.826 51.266 58.13 51.57C58.434 51.874 58.8013 52.026 59.232 52.026C59.6627 52.026 60.03 51.874 60.334 51.57L65.578 46.364V48.872C65.6287 49.252 65.806 49.5813 66.11 49.86C66.414 50.1133 66.756 50.24 67.136 50.24C67.5413 50.24 67.896 50.1133 68.2 49.86C68.504 49.5813 68.6813 49.252 68.732 48.872V42.526C68.732 42.3233 68.694 42.1333 68.618 41.956Z" fill="white"/>
<defs>
<filter id="filter0_d" x="0" y="0" width="110" height="110" filterUnits="userSpaceOnUse" color-interpolation-filters="sRGB">
<feFlood flood-opacity="0" result="BackgroundImageFix"/>
<feColorMatrix in="SourceAlpha" type="matrix" values="0 0 0 0 0 0 0 0 0 0 0 0 0 0 0 0 0 0 127 0"/>
<feOffset/>
<feGaussianBlur stdDeviation="10"/>
<feColorMatrix type="matrix" values="0 0 0 0 0 0 0 0 0 0.4 0 0 0 0 1 0 0 0 0.5 0"/>
<feBlend mode="normal" in2="BackgroundImageFix" result="effect1_dropShadow"/>
<feBlend mode="normal" in="SourceGraphic" in2="effect1_dropShadow" result="shape"/>
</filter>
</defs>
</svg>
